<svg viewBox="0 0 134 64" fill="none" xmlns="http://www.w3.org/2000/svg">
<path d="M53 16.2926C53 10.7698 57.4772 6.2926 63 6.2926H122.39C127.913 6.2926 132.39 10.7698 132.39 16.2926V52.9999C132.39 58.5228 127.913 62.9999 122.39 62.9999H63C57.4772 62.9999 53 58.5228 53 52.9999V16.2926Z" stroke="#63666A" stroke-width="2" stroke-miterlimit="10" stroke-linecap="round" stroke-linejoin="round"/>
<circle cx="92.6951" cy="6.29268" r="5.29268" fill="white" stroke="#63666A" stroke-width="2" stroke-miterlimit="10" stroke-linecap="round" stroke-linejoin="round"/>
<circle cx="118.402" cy="6.29268" r="5.29268" fill="white" stroke="#63666A" stroke-width="2" stroke-miterlimit="10" stroke-linecap="round" stroke-linejoin="round"/>
<circle cx="66.9878" cy="6.29268" r="5.29268" fill="white" stroke="#63666A" stroke-width="2" stroke-miterlimit="10" stroke-linecap="round" stroke-linejoin="round"/>
<path d="M79.4634 13.8536V59.2195" stroke="#63666A" stroke-width="2" stroke-miterlimit="10" stroke-linecap="round" stroke-linejoin="round" stroke-dasharray="4 4"/>
<path d="M105.927 13.8536V59.2195" stroke="#63666A" stroke-width="2" stroke-miterlimit="10" stroke-linecap="round" stroke-linejoin="round" stroke-dasharray="4 4"/>
<rect x="60.561" y="17.6342" width="26.4634" height="7.56098" rx="3.78049" fill="#72CA92" stroke="#63666A" stroke-width="2" stroke-miterlimit="10" stroke-linecap="round" stroke-linejoin="round"/>
<rect x="71.9024" y="32.7561" width="41.5854" height="7.56098" rx="3.78049" fill="#729ACA" stroke="#63666A" stroke-width="2" stroke-miterlimit="10" stroke-linecap="round" stroke-linejoin="round"/>
<rect x="98.3658" y="47.8781" width="15.122" height="7.56098" rx="3.78049" fill="#E9CB8F" stroke="#63666A" stroke-width="2" stroke-miterlimit="10" stroke-linecap="round" stroke-linejoin="round"/>
<path d="M67.4595 9H66.8511V4.78564L65.8052 5.25391V4.67969L67.3638 3.99951H67.4595V9Z" fill="#63666A"/>
<path d="M94.1478 9H91.3655V8.54541L92.784 6.66553C92.9982 6.37614 93.1463 6.13916 93.2283 5.95459C93.3126 5.76774 93.3548 5.57064 93.3548 5.36328C93.3548 5.09896 93.2933 4.88477 93.1702 4.7207C93.0472 4.55664 92.8854 4.47461 92.6849 4.47461C92.4319 4.47461 92.236 4.56234 92.097 4.73779C91.9603 4.91097 91.8919 5.16162 91.8919 5.48975H91.2869C91.2869 5.03174 91.4122 4.66146 91.6629 4.37891C91.9135 4.09635 92.2542 3.95508 92.6849 3.95508C93.0813 3.95508 93.3935 4.07699 93.6214 4.3208C93.8493 4.56234 93.9632 4.88477 93.9632 5.28809C93.9632 5.78027 93.7068 6.36247 93.1941 7.03467L92.0867 8.48389H94.1478V9Z" fill="#63666A"/>
<path d="M117.845 6.2041H118.232C118.48 6.2041 118.671 6.12777 118.806 5.9751C118.94 5.82243 119.007 5.61393 119.007 5.34961C119.007 4.76628 118.782 4.47461 118.331 4.47461C118.114 4.47461 117.944 4.55322 117.821 4.71045C117.698 4.86768 117.637 5.07389 117.637 5.3291H117.035C117.035 4.93034 117.156 4.60221 117.398 4.34473C117.641 4.08496 117.952 3.95508 118.331 3.95508C118.723 3.95508 119.034 4.07812 119.264 4.32422C119.494 4.56803 119.609 4.91439 119.609 5.36328C119.609 5.59342 119.549 5.80876 119.428 6.00928C119.309 6.20752 119.154 6.35335 118.963 6.44678C119.432 6.61995 119.667 7.00846 119.667 7.6123C119.667 8.05664 119.543 8.41097 119.295 8.67529C119.048 8.93734 118.726 9.06836 118.327 9.06836C117.933 9.06836 117.614 8.94417 117.37 8.6958C117.129 8.44515 117.008 8.10905 117.008 7.6875H117.613C117.613 7.95182 117.677 8.1626 117.804 8.31982C117.932 8.47477 118.106 8.55225 118.327 8.55225C118.553 8.55225 118.732 8.47591 118.864 8.32324C118.998 8.17057 119.066 7.93815 119.066 7.62598C119.066 7.02214 118.78 6.72021 118.208 6.72021H117.845V6.2041Z" fill="#63666A"/>
<circle cx="22" cy="32" r="21" stroke="#009CDE" stroke-width="2"/>
<path d="M19.1348 29.6211H21.1211C22.3984 29.6211 23.3828 29.2285 24.0742 28.4434C24.7656 27.6582 25.1113 26.5859 25.1113 25.2266C25.1113 22.2266 23.9512 20.7266 21.6309 20.7266C20.5176 20.7266 19.6445 21.1309 19.0117 21.9395C18.3789 22.748 18.0625 23.8086 18.0625 25.1211H14.9688C14.9688 23.0703 15.5898 21.3828 16.832 20.0586C18.0859 18.7227 19.6855 18.0547 21.6309 18.0547C23.6465 18.0547 25.2461 18.6875 26.4297 19.9531C27.6133 21.207 28.2051 22.9883 28.2051 25.2969C28.2051 26.4805 27.8945 27.5879 27.2734 28.6191C26.6641 29.6387 25.8672 30.3887 24.8828 30.8691C27.2969 31.7598 28.5039 33.7578 28.5039 36.8633C28.5039 39.1484 27.8652 40.9707 26.5879 42.3301C25.3223 43.6777 23.6641 44.3516 21.6133 44.3516C19.5859 44.3516 17.9453 43.7129 16.6914 42.4355C15.4492 41.1465 14.8281 39.418 14.8281 37.25H17.9395C17.9395 38.6094 18.2676 39.6934 18.9238 40.502C19.5801 41.2988 20.4766 41.6973 21.6133 41.6973C22.7734 41.6973 23.6934 41.3047 24.373 40.5195C25.0645 39.7344 25.4102 38.5391 25.4102 36.9336C25.4102 33.8281 23.9395 32.2754 20.998 32.2754H19.1348V29.6211Z" fill="#009CDE"/>
</svg>
