<svg viewBox="0 0 224 28" fill="none" xmlns="http://www.w3.org/2000/svg">
<circle cx="5" cy="7" r="5" fill="#72C992"/>
<path d="M23.8779 8.50146H21.6436L21.1494 10H20.188L22.3525 3.74268H23.1904L25.3228 10H24.3667L23.8779 8.50146ZM21.9067 7.69043H23.6147L22.7661 5.08545L21.9067 7.69043ZM27.4121 8.4209L27.4336 8.64648L27.4604 8.50684L28.54 3.74268H29.3779L30.436 8.52295L30.4521 8.61426L30.4736 8.41016L31.3223 3.74268H32.2622L30.9463 10H30.0601L28.959 5.20361L27.8203 10H26.9395L25.6343 3.74268H26.5635L27.4121 8.4209ZM36.3926 8.50146H34.1582L33.6641 10H32.7026L34.8672 3.74268H35.7051L37.8374 10H36.8813L36.3926 8.50146ZM34.4214 7.69043H36.1294L35.2808 5.08545L34.4214 7.69043ZM40.7969 7.58838H39.6904V10H38.7397V3.74268H40.6841C41.3429 3.74268 41.846 3.90739 42.1934 4.23682C42.5407 4.56624 42.7144 5.0389 42.7144 5.65479C42.7144 6.47119 42.3706 7.03695 41.6831 7.35205L42.9561 9.94629V10H41.9409L40.7969 7.58838ZM39.6904 6.77734H40.6787C41.0153 6.77734 41.2803 6.67887 41.4736 6.48193C41.6706 6.28499 41.769 6.02181 41.769 5.69238C41.769 4.94043 41.3966 4.56445 40.6519 4.56445H39.6904V6.77734ZM47.1348 7.1748H44.8091V9.18896H47.5269V10H43.8638V3.74268H47.4946V4.56445H44.8091V6.3584H47.1348V7.1748ZM53.0322 10H52.0869L49.5249 5.29492V10H48.5796V3.74268H49.5249L52.0869 8.45312V3.74268H53.0322V10ZM57.7158 7.1748H55.3901V9.18896H58.1079V10H54.4448V3.74268H58.0757V4.56445H55.3901V6.3584H57.7158V7.1748ZM62.0933 8.39941C62.0933 8.10221 62.0037 7.87484 61.8247 7.71729C61.6493 7.55615 61.3467 7.41113 60.917 7.28223C60.4909 7.15332 60.1489 7.01009 59.8911 6.85254C59.3182 6.49805 59.0317 6.00749 59.0317 5.38086C59.0317 4.87598 59.2144 4.4624 59.5796 4.14014C59.9448 3.81787 60.4211 3.65674 61.0083 3.65674C61.6099 3.65674 62.0986 3.83577 62.4746 4.19385C62.8506 4.54834 63.0386 5.00667 63.0386 5.56885H62.0933C62.0933 5.21436 61.9966 4.94222 61.8032 4.75244C61.6099 4.56266 61.3413 4.46777 60.9976 4.46777C60.6825 4.46777 60.4336 4.54655 60.251 4.7041C60.0719 4.86165 59.9824 5.08545 59.9824 5.37549C59.9824 5.62256 60.0845 5.82845 60.2886 5.99316C60.4927 6.1543 60.8096 6.30111 61.2393 6.43359C61.6689 6.56608 62.0127 6.72184 62.2705 6.90088C62.5319 7.07633 62.7253 7.28581 62.8506 7.5293C62.9795 7.77279 63.0439 8.05924 63.0439 8.38867C63.0439 8.91146 62.8631 9.32503 62.5015 9.62939C62.1398 9.93376 61.651 10.0859 61.0352 10.0859C60.6341 10.0859 60.2653 10.0054 59.9287 9.84424C59.5921 9.68311 59.3289 9.45573 59.1392 9.16211C58.9494 8.86491 58.8545 8.51937 58.8545 8.12549H59.8052C59.8052 8.49788 59.9108 8.78434 60.1221 8.98486C60.3333 9.18538 60.6377 9.28564 61.0352 9.28564C61.3896 9.28564 61.6546 9.20508 61.8301 9.04395C62.0055 8.87923 62.0933 8.66439 62.0933 8.39941ZM67.0884 8.39941C67.0884 8.10221 66.9989 7.87484 66.8198 7.71729C66.6444 7.55615 66.3418 7.41113 65.9121 7.28223C65.486 7.15332 65.144 7.01009 64.8862 6.85254C64.3133 6.49805 64.0269 6.00749 64.0269 5.38086C64.0269 4.87598 64.2095 4.4624 64.5747 4.14014C64.9399 3.81787 65.4162 3.65674 66.0034 3.65674C66.605 3.65674 67.0938 3.83577 67.4697 4.19385C67.8457 4.54834 68.0337 5.00667 68.0337 5.56885H67.0884C67.0884 5.21436 66.9917 4.94222 66.7983 4.75244C66.605 4.56266 66.3364 4.46777 65.9927 4.46777C65.6776 4.46777 65.4287 4.54655 65.2461 4.7041C65.0671 4.86165 64.9775 5.08545 64.9775 5.37549C64.9775 5.62256 65.0796 5.82845 65.2837 5.99316C65.4878 6.1543 65.8047 6.30111 66.2344 6.43359C66.6641 6.56608 67.0078 6.72184 67.2656 6.90088C67.527 7.07633 67.7204 7.28581 67.8457 7.5293C67.9746 7.77279 68.0391 8.05924 68.0391 8.38867C68.0391 8.91146 67.8582 9.32503 67.4966 9.62939C67.1349 9.93376 66.6462 10.0859 66.0303 10.0859C65.6292 10.0859 65.2604 10.0054 64.9238 9.84424C64.5872 9.68311 64.3241 9.45573 64.1343 9.16211C63.9445 8.86491 63.8496 8.51937 63.8496 8.12549H64.8003C64.8003 8.49788 64.9059 8.78434 65.1172 8.98486C65.3285 9.18538 65.6328 9.28564 66.0303 9.28564C66.3848 9.28564 66.6497 9.20508 66.8252 9.04395C67.0007 8.87923 67.0884 8.66439 67.0884 8.39941Z" fill="#828282"/>
<circle cx="91" cy="7" r="5" fill="#729ACA"/>
<path d="M109.636 8.39941C109.636 8.10221 109.547 7.87484 109.368 7.71729C109.192 7.55615 108.89 7.41113 108.46 7.28223C108.034 7.15332 107.692 7.01009 107.434 6.85254C106.861 6.49805 106.575 6.00749 106.575 5.38086C106.575 4.87598 106.757 4.4624 107.123 4.14014C107.488 3.81787 107.964 3.65674 108.551 3.65674C109.153 3.65674 109.642 3.83577 110.018 4.19385C110.394 4.54834 110.582 5.00667 110.582 5.56885H109.636C109.636 5.21436 109.54 4.94222 109.346 4.75244C109.153 4.56266 108.884 4.46777 108.541 4.46777C108.225 4.46777 107.977 4.54655 107.794 4.7041C107.615 4.86165 107.525 5.08545 107.525 5.37549C107.525 5.62256 107.627 5.82845 107.832 5.99316C108.036 6.1543 108.353 6.30111 108.782 6.43359C109.212 6.56608 109.556 6.72184 109.813 6.90088C110.075 7.07633 110.268 7.28581 110.394 7.5293C110.522 7.77279 110.587 8.05924 110.587 8.38867C110.587 8.91146 110.406 9.32503 110.044 9.62939C109.683 9.93376 109.194 10.0859 108.578 10.0859C108.177 10.0859 107.808 10.0054 107.472 9.84424C107.135 9.68311 106.872 9.45573 106.682 9.16211C106.492 8.86491 106.397 8.51937 106.397 8.12549H107.348C107.348 8.49788 107.454 8.78434 107.665 8.98486C107.876 9.18538 108.181 9.28564 108.578 9.28564C108.933 9.28564 109.198 9.20508 109.373 9.04395C109.549 8.87923 109.636 8.66439 109.636 8.39941ZM115.722 4.56445H113.971V10H113.02V4.56445H111.28V3.74268H115.722V4.56445ZM120.803 3.74268V7.96436C120.796 8.60173 120.602 9.11556 120.223 9.50586C119.843 9.89258 119.336 10.0859 118.703 10.0859C118.065 10.0859 117.559 9.89795 117.183 9.52197C116.807 9.146 116.615 8.62679 116.608 7.96436V3.74268H117.542V7.93213C117.542 8.3654 117.641 8.6984 117.838 8.93115C118.038 9.16032 118.327 9.2749 118.703 9.2749C119.054 9.2749 119.333 9.16748 119.541 8.95264C119.748 8.73421 119.852 8.39404 119.852 7.93213V3.74268H120.803ZM122.097 10V3.74268H123.735C124.502 3.74268 125.116 4.01302 125.578 4.55371C126.043 5.0944 126.276 5.82308 126.276 6.73975V7.0459C126.276 7.94466 126.041 8.66081 125.572 9.19434C125.107 9.72428 124.482 9.99284 123.698 10H122.097ZM123.042 4.56445V9.18896H123.671C124.219 9.18896 124.632 9.00635 124.912 8.64111C125.194 8.2723 125.336 7.73877 125.336 7.04053V6.69678C125.336 6.00928 125.203 5.48291 124.938 5.11768C124.674 4.74886 124.272 4.56445 123.735 4.56445H123.042ZM129.203 6.69141L130.508 3.74268H131.572L129.665 7.79785V10H128.714V7.7334L126.84 3.74268H127.903L129.203 6.69141ZM133.436 10H132.485V3.74268H133.436V10ZM139.333 10H138.388L135.826 5.29492V10H134.88V3.74268H135.826L138.388 8.45312V3.74268H139.333V10ZM145.026 9.19434C144.629 9.78874 143.947 10.0859 142.98 10.0859C142.253 10.0859 141.668 9.81738 141.224 9.28027C140.783 8.74316 140.561 8.02165 140.558 7.11572V6.64844C140.558 5.69954 140.762 4.9637 141.17 4.44092C141.578 3.91813 142.151 3.65674 142.889 3.65674C143.497 3.65674 143.984 3.82324 144.35 4.15625C144.715 4.48926 144.942 4.9834 145.032 5.63867H144.086C143.968 4.86165 143.573 4.47314 142.899 4.47314C142.036 4.47314 141.576 5.10693 141.519 6.37451L141.514 7.09961C141.514 7.77995 141.646 8.31348 141.911 8.7002C142.176 9.08333 142.538 9.2749 142.996 9.2749C143.44 9.2749 143.768 9.17822 143.979 8.98486L144.086 8.87744V7.59912H142.899V6.82568H145.026V9.19434ZM151.375 5.80518H153.142V6.74512H151.375V9.21582H150.419V6.74512H148.636V5.80518H150.419V3.52246H151.375V5.80518ZM161.15 7.9751C161.086 8.65902 160.862 9.1818 160.479 9.54346C160.096 9.90511 159.587 10.0859 158.954 10.0859C158.266 10.0859 157.715 9.82096 157.299 9.29102C156.888 8.75749 156.682 8.03418 156.682 7.12109V6.60547C156.682 5.71387 156.891 4.99951 157.31 4.4624C157.729 3.92529 158.295 3.65674 159.007 3.65674C159.627 3.65674 160.123 3.84294 160.495 4.21533C160.871 4.58415 161.09 5.11051 161.15 5.79443H160.2C160.15 5.32894 160.03 4.99235 159.84 4.78467C159.65 4.57699 159.373 4.47314 159.007 4.47314C158.556 4.47314 158.214 4.65755 157.981 5.02637C157.749 5.39518 157.632 5.92334 157.632 6.61084V7.14795C157.632 7.83545 157.743 8.36182 157.965 8.72705C158.187 9.09229 158.517 9.2749 158.954 9.2749C159.337 9.2749 159.625 9.18001 159.818 8.99023C160.015 8.79688 160.142 8.4585 160.2 7.9751H161.15ZM166.747 7.05664C166.747 7.98763 166.536 8.72526 166.113 9.26953C165.694 9.8138 165.132 10.0859 164.427 10.0859C163.729 10.0859 163.165 9.81201 162.735 9.26416C162.309 8.71273 162.096 7.96973 162.096 7.03516V6.69678C162.096 6.09163 162.192 5.55811 162.386 5.09619C162.579 4.63428 162.851 4.27979 163.202 4.03271C163.553 3.78206 163.958 3.65674 164.416 3.65674C165.125 3.65674 165.691 3.93066 166.113 4.47852C166.536 5.02637 166.747 5.77474 166.747 6.72363V7.05664ZM165.812 6.68604C165.812 5.97705 165.691 5.43457 165.447 5.05859C165.204 4.68262 164.86 4.49463 164.416 4.49463C163.993 4.49463 163.659 4.68262 163.412 5.05859C163.168 5.43099 163.041 5.94661 163.03 6.60547V7.05664C163.03 7.7513 163.156 8.29199 163.406 8.67871C163.66 9.06543 164.001 9.25879 164.427 9.25879C164.867 9.25879 165.207 9.07259 165.447 8.7002C165.687 8.3278 165.809 7.79069 165.812 7.08887V6.68604ZM172.44 10H171.495L168.933 5.29492V10H167.988V3.74268H168.933L171.495 8.45312V3.74268H172.44V10ZM176.786 8.39941C176.786 8.10221 176.696 7.87484 176.517 7.71729C176.342 7.55615 176.039 7.41113 175.609 7.28223C175.183 7.15332 174.841 7.01009 174.583 6.85254C174.011 6.49805 173.724 6.00749 173.724 5.38086C173.724 4.87598 173.907 4.4624 174.272 4.14014C174.637 3.81787 175.113 3.65674 175.701 3.65674C176.302 3.65674 176.791 3.83577 177.167 4.19385C177.543 4.54834 177.731 5.00667 177.731 5.56885H176.786C176.786 5.21436 176.689 4.94222 176.496 4.75244C176.302 4.56266 176.034 4.46777 175.69 4.46777C175.375 4.46777 175.126 4.54655 174.943 4.7041C174.764 4.86165 174.675 5.08545 174.675 5.37549C174.675 5.62256 174.777 5.82845 174.981 5.99316C175.185 6.1543 175.502 6.30111 175.932 6.43359C176.361 6.56608 176.705 6.72184 176.963 6.90088C177.224 7.07633 177.418 7.28581 177.543 7.5293C177.672 7.77279 177.736 8.05924 177.736 8.38867C177.736 8.91146 177.556 9.32503 177.194 9.62939C176.832 9.93376 176.343 10.0859 175.728 10.0859C175.326 10.0859 174.958 10.0054 174.621 9.84424C174.285 9.68311 174.021 9.45573 173.832 9.16211C173.642 8.86491 173.547 8.51937 173.547 8.12549H174.498C174.498 8.49788 174.603 8.78434 174.814 8.98486C175.026 9.18538 175.33 9.28564 175.728 9.28564C176.082 9.28564 176.347 9.20508 176.522 9.04395C176.698 8.87923 176.786 8.66439 176.786 8.39941ZM179.842 10H178.891V3.74268H179.842V10ZM181.287 10V3.74268H182.925C183.691 3.74268 184.305 4.01302 184.767 4.55371C185.233 5.0944 185.465 5.82308 185.465 6.73975V7.0459C185.465 7.94466 185.231 8.66081 184.762 9.19434C184.296 9.72428 183.671 9.99284 182.887 10H181.287ZM182.232 4.56445V9.18896H182.86C183.408 9.18896 183.822 9.00635 184.101 8.64111C184.384 8.2723 184.525 7.73877 184.525 7.04053V6.69678C184.525 6.00928 184.393 5.48291 184.128 5.11768C183.863 4.74886 183.462 4.56445 182.925 4.56445H182.232ZM189.972 7.1748H187.646V9.18896H190.364V10H186.701V3.74268H190.332V4.56445H187.646V6.3584H189.972V7.1748ZM193.474 7.58838H192.367V10H191.417V3.74268H193.361C194.02 3.74268 194.523 3.90739 194.87 4.23682C195.217 4.56624 195.391 5.0389 195.391 5.65479C195.391 6.47119 195.047 7.03695 194.36 7.35205L195.633 9.94629V10H194.618L193.474 7.58838ZM192.367 6.77734H193.355C193.692 6.77734 193.957 6.67887 194.15 6.48193C194.347 6.28499 194.446 6.02181 194.446 5.69238C194.446 4.94043 194.073 4.56445 193.329 4.56445H192.367V6.77734ZM199.715 8.50146H197.48L196.986 10H196.025L198.189 3.74268H199.027L201.16 10H200.204L199.715 8.50146ZM197.744 7.69043H199.452L198.603 5.08545L197.744 7.69043ZM205.741 4.56445H203.99V10H203.04V4.56445H201.299V3.74268H205.741V4.56445ZM207.729 10H206.778V3.74268H207.729V10ZM213.647 7.05664C213.647 7.98763 213.436 8.72526 213.014 9.26953C212.595 9.8138 212.033 10.0859 211.327 10.0859C210.629 10.0859 210.065 9.81201 209.635 9.26416C209.209 8.71273 208.996 7.96973 208.996 7.03516V6.69678C208.996 6.09163 209.093 5.55811 209.286 5.09619C209.479 4.63428 209.752 4.27979 210.103 4.03271C210.453 3.78206 210.858 3.65674 211.316 3.65674C212.025 3.65674 212.591 3.93066 213.014 4.47852C213.436 5.02637 213.647 5.77474 213.647 6.72363V7.05664ZM212.713 6.68604C212.713 5.97705 212.591 5.43457 212.348 5.05859C212.104 4.68262 211.76 4.49463 211.316 4.49463C210.894 4.49463 210.559 4.68262 210.312 5.05859C210.069 5.43099 209.941 5.94661 209.931 6.60547V7.05664C209.931 7.7513 210.056 8.29199 210.307 8.67871C210.561 9.06543 210.901 9.25879 211.327 9.25879C211.768 9.25879 212.108 9.07259 212.348 8.7002C212.588 8.3278 212.709 7.79069 212.713 7.08887V6.68604ZM219.341 10H218.396L215.833 5.29492V10H214.888V3.74268H215.833L218.396 8.45312V3.74268H219.341V10Z" fill="#828282"/>
<circle cx="5" cy="22" r="5" fill="#9678A6"/>
<path d="M22.5674 23.4316L22.6802 23.8882L22.793 23.4424L24.1572 18.7427H25.1724L23.1206 25H22.2397L20.188 18.7427H21.2085L22.5674 23.4316ZM29.335 22.1748H27.0093V24.189H29.7271V25H26.064V18.7427H29.6948V19.5645H27.0093V21.3584H29.335V22.1748ZM32.8369 22.5884H31.7305V25H30.7798V18.7427H32.7241C33.383 18.7427 33.8861 18.9074 34.2334 19.2368C34.5807 19.5662 34.7544 20.0389 34.7544 20.6548C34.7544 21.4712 34.4106 22.0369 33.7231 22.3521L34.9961 24.9463V25H33.981L32.8369 22.5884ZM31.7305 21.7773H32.7188C33.0553 21.7773 33.3203 21.6789 33.5137 21.4819C33.7106 21.285 33.8091 21.0218 33.8091 20.6924C33.8091 19.9404 33.4367 19.5645 32.6919 19.5645H31.7305V21.7773ZM36.8975 25H35.9468V18.7427H36.8975V25ZM41.5381 22.3198H39.2876V25H38.3423V18.7427H41.8926V19.5645H39.2876V21.498H41.5381V22.3198ZM43.9014 25H42.9507V18.7427H43.9014V25ZM49.627 22.9751C49.5625 23.659 49.3387 24.1818 48.9556 24.5435C48.5724 24.9051 48.064 25.0859 47.4302 25.0859C46.7427 25.0859 46.1912 24.821 45.7759 24.291C45.3641 23.7575 45.1582 23.0342 45.1582 22.1211V21.6055C45.1582 20.7139 45.3677 19.9995 45.7866 19.4624C46.2056 18.9253 46.7713 18.6567 47.4839 18.6567C48.1034 18.6567 48.5993 18.8429 48.9717 19.2153C49.3477 19.5841 49.5661 20.1105 49.627 20.7944H48.6763C48.6261 20.3289 48.5062 19.9924 48.3164 19.7847C48.1266 19.577 47.8491 19.4731 47.4839 19.4731C47.0327 19.4731 46.6908 19.6576 46.458 20.0264C46.2253 20.3952 46.1089 20.9233 46.1089 21.6108V22.1479C46.1089 22.8354 46.2199 23.3618 46.4419 23.7271C46.6639 24.0923 46.9933 24.2749 47.4302 24.2749C47.8133 24.2749 48.1016 24.18 48.2949 23.9902C48.4919 23.7969 48.619 23.4585 48.6763 22.9751H49.627ZM53.9238 23.5015H51.6895L51.1953 25H50.2339L52.3984 18.7427H53.2363L55.3687 25H54.4126L53.9238 23.5015ZM51.9526 22.6904H53.6606L52.812 20.0854L51.9526 22.6904ZM59.9502 19.5645H58.1992V25H57.2485V19.5645H55.5083V18.7427H59.9502V19.5645ZM61.9375 25H60.9868V18.7427H61.9375V25ZM67.8564 22.0566C67.8564 22.9876 67.6452 23.7253 67.2227 24.2695C66.8037 24.8138 66.2415 25.0859 65.5361 25.0859C64.8379 25.0859 64.2739 24.812 63.8442 24.2642C63.4181 23.7127 63.2051 22.9697 63.2051 22.0352V21.6968C63.2051 21.0916 63.3018 20.5581 63.4951 20.0962C63.6885 19.6343 63.9606 19.2798 64.3115 19.0327C64.6624 18.7821 65.0671 18.6567 65.5254 18.6567C66.2344 18.6567 66.8001 18.9307 67.2227 19.4785C67.6452 20.0264 67.8564 20.7747 67.8564 21.7236V22.0566ZM66.9219 21.686C66.9219 20.9771 66.8001 20.4346 66.5566 20.0586C66.3132 19.6826 65.9694 19.4946 65.5254 19.4946C65.1029 19.4946 64.7681 19.6826 64.521 20.0586C64.2775 20.431 64.1504 20.9466 64.1396 21.6055V22.0566C64.1396 22.7513 64.265 23.292 64.5156 23.6787C64.7699 24.0654 65.11 24.2588 65.5361 24.2588C65.9766 24.2588 66.3167 24.0726 66.5566 23.7002C66.7965 23.3278 66.9183 22.7907 66.9219 22.0889V21.686ZM73.5498 25H72.6045L70.0425 20.2949V25H69.0972V18.7427H70.0425L72.6045 23.4531V18.7427H73.5498V25Z" fill="#828282"/>
<circle cx="91" cy="22" r="5" fill="#E47287"/>
<path d="M107.649 22.6475V25H106.704V18.7427H108.868C109.488 18.7427 109.984 18.9199 110.356 19.2744C110.728 19.6289 110.915 20.1087 110.915 20.7139C110.915 21.3262 110.734 21.8024 110.372 22.1426C110.014 22.4792 109.509 22.6475 108.857 22.6475H107.649ZM107.649 21.8311H108.868C109.212 21.8311 109.48 21.738 109.674 21.5518C109.867 21.3656 109.964 21.0898 109.964 20.7246C109.964 20.3737 109.867 20.0944 109.674 19.8867C109.48 19.6755 109.219 19.568 108.89 19.5645H107.649V21.8311ZM116.087 18.7427V22.9644C116.08 23.6017 115.886 24.1156 115.507 24.5059C115.127 24.8926 114.621 25.0859 113.987 25.0859C113.349 25.0859 112.843 24.8979 112.467 24.522C112.091 24.146 111.899 23.6268 111.892 22.9644V18.7427H112.827V22.9321C112.827 23.3654 112.925 23.6984 113.122 23.9312C113.323 24.1603 113.611 24.2749 113.987 24.2749C114.338 24.2749 114.617 24.1675 114.825 23.9526C115.032 23.7342 115.136 23.394 115.136 22.9321V18.7427H116.087ZM119.438 22.5884H118.332V25H117.381V18.7427H119.326C119.985 18.7427 120.488 18.9074 120.835 19.2368C121.182 19.5662 121.356 20.0389 121.356 20.6548C121.356 21.4712 121.012 22.0369 120.325 22.3521L121.598 24.9463V25H120.583L119.438 22.5884ZM118.332 21.7773H119.32C119.657 21.7773 119.922 21.6789 120.115 21.4819C120.312 21.285 120.411 21.0218 120.411 20.6924C120.411 19.9404 120.038 19.5645 119.293 19.5645H118.332V21.7773ZM126.786 22.9751C126.722 23.659 126.498 24.1818 126.115 24.5435C125.732 24.9051 125.223 25.0859 124.589 25.0859C123.902 25.0859 123.35 24.821 122.935 24.291C122.523 23.7575 122.317 23.0342 122.317 22.1211V21.6055C122.317 20.7139 122.527 19.9995 122.946 19.4624C123.365 18.9253 123.931 18.6567 124.643 18.6567C125.263 18.6567 125.758 18.8429 126.131 19.2153C126.507 19.5841 126.725 20.1105 126.786 20.7944H125.835C125.785 20.3289 125.665 19.9924 125.476 19.7847C125.286 19.577 125.008 19.4731 124.643 19.4731C124.192 19.4731 123.85 19.6576 123.617 20.0264C123.384 20.3952 123.268 20.9233 123.268 21.6108V22.1479C123.268 22.8354 123.379 23.3618 123.601 23.7271C123.823 24.0923 124.153 24.2749 124.589 24.2749C124.972 24.2749 125.261 24.18 125.454 23.9902C125.651 23.7969 125.778 23.4585 125.835 22.9751H126.786ZM132.367 25H131.421V22.3252H128.854V25H127.909V18.7427H128.854V21.5088H131.421V18.7427H132.367V25ZM136.959 23.5015H134.725L134.23 25H133.269L135.434 18.7427H136.271L138.404 25H137.448L136.959 23.5015ZM134.988 22.6904H136.696L135.847 20.0854L134.988 22.6904ZM142.239 23.3994C142.239 23.1022 142.149 22.8748 141.97 22.7173C141.795 22.5562 141.492 22.4111 141.062 22.2822C140.636 22.1533 140.294 22.0101 140.037 21.8525C139.464 21.498 139.177 21.0075 139.177 20.3809C139.177 19.876 139.36 19.4624 139.725 19.1401C140.09 18.8179 140.567 18.6567 141.154 18.6567C141.755 18.6567 142.244 18.8358 142.62 19.1938C142.996 19.5483 143.184 20.0067 143.184 20.5688H142.239C142.239 20.2144 142.142 19.9422 141.949 19.7524C141.755 19.5627 141.487 19.4678 141.143 19.4678C140.828 19.4678 140.579 19.5465 140.396 19.7041C140.217 19.8617 140.128 20.0854 140.128 20.3755C140.128 20.6226 140.23 20.8285 140.434 20.9932C140.638 21.1543 140.955 21.3011 141.385 21.4336C141.814 21.5661 142.158 21.7218 142.416 21.9009C142.677 22.0763 142.871 22.2858 142.996 22.5293C143.125 22.7728 143.189 23.0592 143.189 23.3887C143.189 23.9115 143.009 24.325 142.647 24.6294C142.285 24.9338 141.797 25.0859 141.181 25.0859C140.78 25.0859 140.411 25.0054 140.074 24.8442C139.738 24.6831 139.474 24.4557 139.285 24.1621C139.095 23.8649 139 23.5194 139 23.1255H139.951C139.951 23.4979 140.056 23.7843 140.268 23.9849C140.479 24.1854 140.783 24.2856 141.181 24.2856C141.535 24.2856 141.8 24.2051 141.976 24.0439C142.151 23.8792 142.239 23.6644 142.239 23.3994ZM147.572 22.1748H145.247V24.189H147.964V25H144.301V18.7427H147.932V19.5645H145.247V21.3584H147.572V22.1748Z" fill="#828282"/>
<circle cx="171" cy="23" r="5" fill="#E9CB8F"/>
<path d="M187.649 24.189H190.238V25H186.704V18.7427H187.649V24.189ZM195.604 22.0566C195.604 22.9876 195.392 23.7253 194.97 24.2695C194.551 24.8138 193.989 25.0859 193.283 25.0859C192.585 25.0859 192.021 24.812 191.591 24.2642C191.165 23.7127 190.952 22.9697 190.952 22.0352V21.6968C190.952 21.0916 191.049 20.5581 191.242 20.0962C191.436 19.6343 191.708 19.2798 192.059 19.0327C192.41 18.7821 192.814 18.6567 193.272 18.6567C193.981 18.6567 194.547 18.9307 194.97 19.4785C195.392 20.0264 195.604 20.7747 195.604 21.7236V22.0566ZM194.669 21.686C194.669 20.9771 194.547 20.4346 194.304 20.0586C194.06 19.6826 193.716 19.4946 193.272 19.4946C192.85 19.4946 192.515 19.6826 192.268 20.0586C192.025 20.431 191.897 20.9466 191.887 21.6055V22.0566C191.887 22.7513 192.012 23.292 192.263 23.6787C192.517 24.0654 192.857 24.2588 193.283 24.2588C193.724 24.2588 194.064 24.0726 194.304 23.7002C194.544 23.3278 194.665 22.7907 194.669 22.0889V21.686ZM198.536 21.6914L199.841 18.7427H200.905L198.998 22.7979V25H198.047V22.7334L196.173 18.7427H197.236L198.536 21.6914ZM204.949 23.5015H202.715L202.221 25H201.259L203.424 18.7427H204.262L206.394 25H205.438L204.949 23.5015ZM202.978 22.6904H204.686L203.837 20.0854L202.978 22.6904ZM208.242 24.189H210.831V25H207.296V18.7427H208.242V24.189ZM215.466 19.5645H213.715V25H212.764V19.5645H211.024V18.7427H215.466V19.5645ZM218.345 21.6914L219.65 18.7427H220.713L218.807 22.7979V25H217.856V22.7334L215.981 18.7427H217.045L218.345 21.6914Z" fill="#828282"/>
</svg>
