<svg viewBox="0 0 128 77" fill="none" xmlns="http://www.w3.org/2000/svg">
<circle cx="30" cy="26" r="25" stroke="#009CDE" stroke-width="2" stroke-miterlimit="10" stroke-linecap="round" stroke-linejoin="round"/>
<path d="M24.9688 31H22.5352V14.1426L18.3516 16.0156V13.7188L24.5859 10.998H24.9688V31ZM42.2363 22.5098C42.2363 25.4447 41.8079 27.6413 40.9512 29.0996C40.0944 30.5488 38.75 31.2734 36.918 31.2734C35.1406 31.2734 33.8145 30.5762 32.9395 29.1816C32.0645 27.7871 31.6087 25.6908 31.5723 22.8926V19.4746C31.5723 16.5671 32.0007 14.3978 32.8574 12.9668C33.7233 11.5358 35.0677 10.8203 36.8906 10.8203C38.6862 10.8203 40.0124 11.4993 40.8691 12.8574C41.735 14.2155 42.1908 16.2708 42.2363 19.0234V22.5098ZM39.8164 19.0508C39.8164 16.9453 39.584 15.3958 39.1191 14.4023C38.6543 13.3997 37.9115 12.8984 36.8906 12.8984C35.8971 12.8984 35.168 13.3906 34.7031 14.375C34.2383 15.3503 33.9967 16.8268 33.9785 18.8047V22.9062C33.9785 25.0026 34.2201 26.5794 34.7031 27.6367C35.1862 28.6849 35.9245 29.209 36.918 29.209C37.9023 29.209 38.627 28.7122 39.0918 27.7188C39.5566 26.7253 39.7982 25.2077 39.8164 23.166V19.0508Z" fill="#009CDE"/>
<path d="M15.3203 69.0547C15.2266 70.0495 14.901 70.8099 14.3438 71.3359C13.7865 71.862 13.0469 72.125 12.125 72.125C11.125 72.125 10.3229 71.7396 9.71875 70.9688C9.11979 70.1927 8.82031 69.1406 8.82031 67.8125V67.0625C8.82031 65.7656 9.125 64.7266 9.73438 63.9453C10.3438 63.1641 11.1667 62.7734 12.2031 62.7734C13.1042 62.7734 13.8255 63.0443 14.3672 63.5859C14.9141 64.1224 15.2318 64.888 15.3203 65.8828H13.9375C13.8646 65.2057 13.6901 64.7161 13.4141 64.4141C13.138 64.112 12.7344 63.9609 12.2031 63.9609C11.5469 63.9609 11.0495 64.2292 10.7109 64.7656C10.3724 65.3021 10.2031 66.0703 10.2031 67.0703V67.8516C10.2031 68.8516 10.3646 69.6172 10.6875 70.1484C11.0104 70.6797 11.4896 70.9453 12.125 70.9453C12.6823 70.9453 13.1016 70.8073 13.3828 70.5312C13.6693 70.25 13.8542 69.7578 13.9375 69.0547H15.3203ZM19.9453 68.4922H18.3359V72H16.9531V62.8984H19.7812C20.7396 62.8984 21.4714 63.138 21.9766 63.6172C22.4818 64.0964 22.7344 64.7839 22.7344 65.6797C22.7344 66.8672 22.2344 67.6901 21.2344 68.1484L23.0859 71.9219V72H21.6094L19.9453 68.4922ZM18.3359 67.3125H19.7734C20.263 67.3125 20.6484 67.1693 20.9297 66.8828C21.2161 66.5964 21.3594 66.2135 21.3594 65.7344C21.3594 64.6406 20.8177 64.0938 19.7344 64.0938H18.3359V67.3125ZM29.1641 67.8906H25.7812V70.8203H29.7344V72H24.4062V62.8984H29.6875V64.0938H25.7812V66.7031H29.1641V67.8906ZM35.8828 69.8203H32.6328L31.9141 72H30.5156L33.6641 62.8984H34.8828L37.9844 72H36.5938L35.8828 69.8203ZM33.0156 68.6406H35.5L34.2656 64.8516L33.0156 68.6406ZM44.6484 64.0938H42.1016V72H40.7188V64.0938H38.1875V62.8984H44.6484V64.0938ZM50.8516 67.8906H47.4688V70.8203H51.4219V72H46.0938V62.8984H51.375V64.0938H47.4688V66.7031H50.8516V67.8906Z" fill="#009CDE"/>
<path d="M23.2441 36.6602L23.291 37.2461C23.6621 36.7773 24.1523 36.543 24.7617 36.543C25.3945 36.543 25.8418 36.8281 26.1035 37.3984C26.4668 36.8281 26.9844 36.543 27.6562 36.543C28.7656 36.543 29.334 37.3105 29.3613 38.8457V43H27.7031V38.9512C27.7031 38.584 27.6523 38.3223 27.5508 38.166C27.4492 38.0098 27.2773 37.9316 27.0352 37.9316C26.7266 37.9316 26.4961 38.1211 26.3438 38.5L26.3555 38.6992V43H24.6973V38.9629C24.6973 38.5996 24.6484 38.3379 24.5508 38.1777C24.4531 38.0137 24.2793 37.9316 24.0293 37.9316C23.7441 37.9316 23.5176 38.0859 23.3496 38.3945V43H21.6914V36.6602H23.2441ZM32.332 43H30.668V36.6602H32.332V43ZM30.5918 35.0195C30.5918 34.7617 30.6738 34.5508 30.8379 34.3867C31.002 34.2227 31.2207 34.1406 31.4941 34.1406C31.7676 34.1406 31.9863 34.2227 32.1504 34.3867C32.3145 34.5508 32.3965 34.7617 32.3965 35.0195C32.3965 35.2734 32.3145 35.4844 32.1504 35.6523C31.9902 35.8203 31.7715 35.9043 31.4941 35.9043C31.2168 35.9043 30.9961 35.8203 30.832 35.6523C30.6719 35.4844 30.5918 35.2734 30.5918 35.0195ZM35.1328 36.6602L35.1797 37.2871C35.5547 36.791 36.0449 36.543 36.6504 36.543C37.7402 36.543 38.3008 37.3066 38.332 38.834V43H36.668V38.957C36.668 38.5977 36.6133 38.3379 36.5039 38.1777C36.3984 38.0137 36.2109 37.9316 35.9414 37.9316C35.6406 37.9316 35.4062 38.0859 35.2383 38.3945V43H33.5742V36.6602H35.1328Z" fill="#009CDE"/>
<circle cx="98" cy="26" r="25" stroke="#009CDE" stroke-width="2" stroke-miterlimit="10" stroke-linecap="round" stroke-linejoin="round"/>
<path d="M93.666 21.0195L94.5273 11.0938H103.182V13.4316H96.5645L96.0996 18.8594C96.9199 18.2852 97.804 17.998 98.752 17.998C100.301 17.998 101.518 18.5996 102.402 19.8027C103.286 21.0059 103.729 22.6237 103.729 24.6562C103.729 26.7161 103.245 28.334 102.279 29.5098C101.322 30.6855 100.005 31.2734 98.3281 31.2734C96.8333 31.2734 95.6165 30.7858 94.6777 29.8105C93.7389 28.8353 93.2012 27.4863 93.0645 25.7637H95.334C95.4707 26.903 95.7943 27.7643 96.3047 28.3477C96.8242 28.9219 97.4987 29.209 98.3281 29.209C99.2669 29.209 100.001 28.8034 100.529 27.9922C101.058 27.1719 101.322 26.069 101.322 24.6836C101.322 23.3802 101.035 22.3184 100.461 21.498C99.8958 20.6777 99.1302 20.2676 98.1641 20.2676C97.362 20.2676 96.7194 20.4772 96.2363 20.8965L95.5938 21.5391L93.666 21.0195Z" fill="#009CDE"/>
<path d="M74.4141 68.5781V72H73.0391V62.8984H76.1875C77.0885 62.8984 77.8099 63.1562 78.3516 63.6719C78.8932 64.1875 79.1641 64.8854 79.1641 65.7656C79.1641 66.6562 78.901 67.349 78.375 67.8438C77.8542 68.3333 77.1198 68.5781 76.1719 68.5781H74.4141ZM74.4141 67.3906H76.1875C76.6875 67.3906 77.0781 67.2552 77.3594 66.9844C77.6406 66.7135 77.7812 66.3125 77.7812 65.7812C77.7812 65.2708 77.6406 64.8646 77.3594 64.5625C77.0781 64.2552 76.6979 64.099 76.2188 64.0938H74.4141V67.3906ZM83.7344 68.4922H82.125V72H80.7422V62.8984H83.5703C84.5286 62.8984 85.2604 63.138 85.7656 63.6172C86.2708 64.0964 86.5234 64.7839 86.5234 65.6797C86.5234 66.8672 86.0234 67.6901 85.0234 68.1484L86.875 71.9219V72H85.3984L83.7344 68.4922ZM82.125 67.3125H83.5625C84.0521 67.3125 84.4375 67.1693 84.7188 66.8828C85.0052 66.5964 85.1484 66.2135 85.1484 65.7344C85.1484 64.6406 84.6068 64.0938 83.5234 64.0938H82.125V67.3125ZM92.9531 67.8906H89.5703V70.8203H93.5234V72H88.1953V62.8984H93.4766V64.0938H89.5703V66.7031H92.9531V67.8906ZM99.3203 69.6719C99.3203 69.2396 99.1901 68.9089 98.9297 68.6797C98.6745 68.4453 98.2344 68.2344 97.6094 68.0469C96.9896 67.8594 96.4922 67.651 96.1172 67.4219C95.2839 66.9062 94.8672 66.1927 94.8672 65.2812C94.8672 64.5469 95.1328 63.9453 95.6641 63.4766C96.1953 63.0078 96.888 62.7734 97.7422 62.7734C98.6172 62.7734 99.3281 63.0339 99.875 63.5547C100.422 64.0703 100.695 64.737 100.695 65.5547H99.3203C99.3203 65.0391 99.1797 64.6432 98.8984 64.3672C98.6172 64.0911 98.2266 63.9531 97.7266 63.9531C97.2682 63.9531 96.9062 64.0677 96.6406 64.2969C96.3802 64.526 96.25 64.8516 96.25 65.2734C96.25 65.6328 96.3984 65.9323 96.6953 66.1719C96.9922 66.4062 97.4531 66.6198 98.0781 66.8125C98.7031 67.0052 99.2031 67.2318 99.5781 67.4922C99.9583 67.7474 100.24 68.0521 100.422 68.4062C100.609 68.7604 100.703 69.1771 100.703 69.6562C100.703 70.4167 100.44 71.0182 99.9141 71.4609C99.388 71.9036 98.6771 72.125 97.7812 72.125C97.1979 72.125 96.6615 72.0078 96.1719 71.7734C95.6823 71.5391 95.2995 71.2083 95.0234 70.7812C94.7474 70.349 94.6094 69.8464 94.6094 69.2734H95.9922C95.9922 69.8151 96.1458 70.2318 96.4531 70.5234C96.7604 70.8151 97.2031 70.9609 97.7812 70.9609C98.2969 70.9609 98.6823 70.8438 98.9375 70.6094C99.1927 70.3698 99.3203 70.0573 99.3203 69.6719ZM107.078 67.8906H103.695V70.8203H107.648V72H102.32V62.8984H107.602V64.0938H103.695V66.7031H107.078V67.8906ZM115.656 72H114.281L110.555 65.1562V72H109.18V62.8984H110.555L114.281 69.75V62.8984H115.656V72ZM123.562 64.0938H121.016V72H119.633V64.0938H117.102V62.8984H123.562V64.0938Z" fill="#009CDE"/>
<path d="M91.2441 36.6602L91.291 37.2461C91.6621 36.7773 92.1523 36.543 92.7617 36.543C93.3945 36.543 93.8418 36.8281 94.1035 37.3984C94.4668 36.8281 94.9844 36.543 95.6562 36.543C96.7656 36.543 97.334 37.3105 97.3613 38.8457V43H95.7031V38.9512C95.7031 38.584 95.6523 38.3223 95.5508 38.166C95.4492 38.0098 95.2773 37.9316 95.0352 37.9316C94.7266 37.9316 94.4961 38.1211 94.3438 38.5L94.3555 38.6992V43H92.6973V38.9629C92.6973 38.5996 92.6484 38.3379 92.5508 38.1777C92.4531 38.0137 92.2793 37.9316 92.0293 37.9316C91.7441 37.9316 91.5176 38.0859 91.3496 38.3945V43H89.6914V36.6602H91.2441ZM100.332 43H98.668V36.6602H100.332V43ZM98.5918 35.0195C98.5918 34.7617 98.6738 34.5508 98.8379 34.3867C99.002 34.2227 99.2207 34.1406 99.4941 34.1406C99.7676 34.1406 99.9863 34.2227 100.15 34.3867C100.314 34.5508 100.396 34.7617 100.396 35.0195C100.396 35.2734 100.314 35.4844 100.15 35.6523C99.9902 35.8203 99.7715 35.9043 99.4941 35.9043C99.2168 35.9043 98.9961 35.8203 98.832 35.6523C98.6719 35.4844 98.5918 35.2734 98.5918 35.0195ZM103.133 36.6602L103.18 37.2871C103.555 36.791 104.045 36.543 104.65 36.543C105.74 36.543 106.301 37.3066 106.332 38.834V43H104.668V38.957C104.668 38.5977 104.613 38.3379 104.504 38.1777C104.398 38.0137 104.211 37.9316 103.941 37.9316C103.641 37.9316 103.406 38.0859 103.238 38.3945V43H101.574V36.6602H103.133Z" fill="#009CDE"/>
</svg>
